<?xml version="1.0" encoding="UTF-8"?>
<svg id="Layer_2" data-name="Layer 2" xmlns="http://www.w3.org/2000/svg" viewBox="0 0 313.61 226.77">
  <defs>
    <style>.cls-1 {
  letter-spacing: -.01em;
}

.cls-2 {
  fill: #fff;
}

.cls-3 {
  fill: #0ff;
}

.cls-4 {
  fill: #1b1464;
  font-family: Mont-HeavyDEMO, Mont;
  font-size: 46.17px;
  font-weight: 800;
}

.cls-5 {
  letter-spacing: -.02em;
}

.cls-6 {
  fill: #231f20;
  stroke: #231f20;
  stroke-miterlimit: 10;
}

.cls-7 {
  letter-spacing: 0;
}

</style>
  </defs>
  <g id="Layer_1-2" data-name="Layer 1">
    <g id="Logo">
      <path class="cls-3" d="m173.68,109.02c-1.48,1.06-3.22,2.01-3.95,3.69-.61,1.37-.41,2.94-.43,4.44-.14,8.56-7.5,14.96-13.85,20.7-6.35,5.74-12.76,13.79-10.29,21.99,1.75,5.86,7.65,9.79,9.3,15.68.16.57.27,1.22-.04,1.73-.36.57-1.12.73-1.79.83-3.7.58-7.4,1.15-11.11,1.73-2.43.37-4.96.74-7.3-.03-3.18-1.06-5.29-3.98-7.38-6.6-4.75-5.97-10.46-11.17-16.84-15.34-7.66-5-16.65-8.89-21.46-16.67-.74-1.2-1.41-2.52-2.57-3.31-1.31-.9-3.02-.97-4.6-.83-7.76.68-14.97,5.83-18.14,12.94-.81,1.82-1.56,3.94-3.4,4.69-1.17.48-2.5.25-3.75.01-6.84-1.32-14.19-2.91-18.87-8.07-2.72-3-4.29-6.98-7.36-9.61-1.78-1.51-3.95-2.48-6.08-3.43-4.83-2.13-9.66-4.27-14.49-6.41-2.82-1.25-6.06-3.06-6.3-6.14,14.71-4.4,29.42-8.8,44.13-13.2.6-.18,1.22-.37,1.68-.78,1.16-1.06.78-2.95.31-4.45-4.56-14.59-9.12-29.17-13.68-43.76,8.75-3.62,14.9-12.24,14.9-22.29,0-.42-.01-.84-.03-1.26,4.99-1.33,10-2.54,15.04-3.63,3.04,6.84,6.09,13.67,9.13,20.51.85,1.9,1.73,3.85,3.21,5.3,2.29,2.24,5.64,2.96,8.81,3.45,7.82,1.22,15.89,1.68,23.6-.08,14.94-3.43,28.64-15.07,43.69-12.19,1.76,6.92,3.65,14.08,8.19,19.59,5,6.06,12.81,9.61,16.82,16.36,4.65,7.86,2.31,19.1-5.1,24.44Z"></path>
      <g>
        <path class="cls-6" d="m35.86,41.57l17.69,11.77c-5.95-.98-12.86,2.32-17.14,8.74-.82,1.23-1.5,2.5-2.03,3.79l-18.98-12.63.12-.18,8.74-4.94,11.59-6.56Z"></path>
        <path class="cls-6" d="m36.42,40.74l17.69,11.77c-3.2-5.11-2.82-12.76,1.45-19.18.82-1.23,1.73-2.34,2.72-3.33l-18.98-12.63-.12.18-1.19,9.97-1.58,13.22Z"></path>
      </g>
      <polygon class="cls-6" points="2.84 58.07 21.06 30.98 39.29 3.89 36.37 21.61 33.45 39.32 18.15 48.69 2.84 58.07"></polygon>
      <polygon class="cls-6" points="37.67 4.76 20.32 30.68 1.91 57.73 7.78 41.95 13.44 26.07 25.98 14.81 37.67 4.76"></polygon>
      <rect class="cls-6" x="6.2" y="52.04" width="1.5" height="29.58" rx=".75" ry=".75"></rect>
      <ellipse class="cls-6" cx="7.04" cy="81.79" rx="2.83" ry="4"></ellipse>
      <text class="cls-4" transform="translate(63.55 127.32) rotate(-23.95) scale(1.06 1)"><tspan x="0" y="0">JOHNN</tspan><tspan class="cls-1" x="171.19" y="0">Y</tspan><tspan class="cls-7" x="202.9" y="0"> </tspan><tspan x="0" y="47">F</tspan><tspan class="cls-5" x="25.3" y="47">L</tspan><tspan x="48.89" y="47">ORES</tspan></text>
      <text></text>
      <text></text>
      <path class="cls-2" d="m14.07,27.63c-2.97,8.89-6.37,17.62-10.22,26.17-.52,1.16,1.2,2.18,1.73,1.01,3.91-8.71,7.39-17.6,10.42-26.65.41-1.22-1.52-1.75-1.93-.53h0Z"></path>
      <path class="cls-2" d="m18.94,54.2c5.55-2.93,11.02-6.03,16.38-9.29,1.1-.67.09-2.4-1.01-1.73-5.37,3.26-10.83,6.36-16.38,9.29-1.14.6-.13,2.33,1.01,1.73h0Z"></path>
    </g>
  </g>
</svg>